<mxfile host="app.diagrams.net" modified="2023-07-08T08:56:01.329Z" agent="Mozilla/5.0 (Windows NT 10.0; Win64; x64) AppleWebKit/537.36 (KHTML, like Gecko) Chrome/114.0.0.0 Safari/537.36" etag="S8GYnmBMJ4_3D59nUbjd" version="21.5.0" type="github">
  <diagram name="第 1 页" id="zocuQ14xIiwXkypuB4Pg">
    <mxGraphModel dx="2662" dy="627" grid="1" gridSize="10" guides="1" tooltips="1" connect="1" arrows="1" fold="1" page="1" pageScale="1" pageWidth="827" pageHeight="583" math="0" shadow="0">
      <root>
        <mxCell id="0" />
        <mxCell id="1" parent="0" />
        <mxCell id="FrjHcxir7yiTrVeb2EXu-1" value="文本需求" style="rounded=1;whiteSpace=wrap;html=1;" vertex="1" parent="1">
          <mxGeometry x="-860" y="325" width="100" height="50" as="geometry" />
        </mxCell>
        <mxCell id="FrjHcxir7yiTrVeb2EXu-11" value="参数化为同类型信息" style="text;html=1;strokeColor=none;fillColor=none;align=center;verticalAlign=middle;whiteSpace=wrap;rounded=0;" vertex="1" parent="1">
          <mxGeometry x="-800" y="277" width="120" height="30" as="geometry" />
        </mxCell>
        <mxCell id="FrjHcxir7yiTrVeb2EXu-14" value="上下文结构" style="rounded=1;whiteSpace=wrap;html=1;" vertex="1" parent="1">
          <mxGeometry x="-860" y="450" width="100" height="50" as="geometry" />
        </mxCell>
        <mxCell id="FrjHcxir7yiTrVeb2EXu-16" value="载荷需求" style="rounded=1;whiteSpace=wrap;html=1;" vertex="1" parent="1">
          <mxGeometry x="-860" y="390" width="100" height="50" as="geometry" />
        </mxCell>
        <mxCell id="FrjHcxir7yiTrVeb2EXu-18" value="文本信息" style="rounded=1;whiteSpace=wrap;html=1;" vertex="1" parent="1">
          <mxGeometry x="-720" y="325" width="100" height="50" as="geometry" />
        </mxCell>
        <mxCell id="FrjHcxir7yiTrVeb2EXu-19" value="" style="endArrow=classic;html=1;rounded=0;exitX=1;exitY=0.5;exitDx=0;exitDy=0;entryX=0;entryY=0.5;entryDx=0;entryDy=0;" edge="1" parent="1" source="FrjHcxir7yiTrVeb2EXu-1" target="FrjHcxir7yiTrVeb2EXu-18">
          <mxGeometry width="50" height="50" relative="1" as="geometry">
            <mxPoint x="-490" y="190" as="sourcePoint" />
            <mxPoint x="-440" y="140" as="targetPoint" />
          </mxGeometry>
        </mxCell>
        <mxCell id="FrjHcxir7yiTrVeb2EXu-21" value="" style="endArrow=classic;html=1;rounded=0;exitX=1;exitY=0.5;exitDx=0;exitDy=0;entryX=0;entryY=0.5;entryDx=0;entryDy=0;" edge="1" parent="1" source="FrjHcxir7yiTrVeb2EXu-16" target="FrjHcxir7yiTrVeb2EXu-26">
          <mxGeometry width="50" height="50" relative="1" as="geometry">
            <mxPoint x="-490" y="190" as="sourcePoint" />
            <mxPoint x="-440" y="140" as="targetPoint" />
          </mxGeometry>
        </mxCell>
        <mxCell id="FrjHcxir7yiTrVeb2EXu-23" value="" style="endArrow=classic;html=1;rounded=0;exitX=1;exitY=0.5;exitDx=0;exitDy=0;entryX=0;entryY=0.5;entryDx=0;entryDy=0;" edge="1" parent="1" source="FrjHcxir7yiTrVeb2EXu-14" target="FrjHcxir7yiTrVeb2EXu-27">
          <mxGeometry width="50" height="50" relative="1" as="geometry">
            <mxPoint x="-490" y="220" as="sourcePoint" />
            <mxPoint x="-440" y="170" as="targetPoint" />
          </mxGeometry>
        </mxCell>
        <mxCell id="FrjHcxir7yiTrVeb2EXu-27" value="上下文结构信息" style="rounded=1;whiteSpace=wrap;html=1;" vertex="1" parent="1">
          <mxGeometry x="-720" y="450" width="100" height="50" as="geometry" />
        </mxCell>
        <mxCell id="FrjHcxir7yiTrVeb2EXu-26" value="载荷信息" style="rounded=1;whiteSpace=wrap;html=1;" vertex="1" parent="1">
          <mxGeometry x="-720" y="390" width="100" height="50" as="geometry" />
        </mxCell>
        <mxCell id="FrjHcxir7yiTrVeb2EXu-32" value="Actor" style="shape=umlActor;verticalLabelPosition=bottom;verticalAlign=top;html=1;outlineConnect=0;" vertex="1" parent="1">
          <mxGeometry x="-570" y="30" width="30" height="60" as="geometry" />
        </mxCell>
        <mxCell id="FrjHcxir7yiTrVeb2EXu-42" style="edgeStyle=orthogonalEdgeStyle;rounded=0;orthogonalLoop=1;jettySize=auto;html=1;exitX=1;exitY=0.5;exitDx=0;exitDy=0;entryX=0;entryY=0.5;entryDx=0;entryDy=0;" edge="1" parent="1" source="FrjHcxir7yiTrVeb2EXu-38" target="FrjHcxir7yiTrVeb2EXu-39">
          <mxGeometry relative="1" as="geometry" />
        </mxCell>
        <mxCell id="FrjHcxir7yiTrVeb2EXu-38" value="input" style="rhombus;whiteSpace=wrap;html=1;" vertex="1" parent="1">
          <mxGeometry x="-570" y="400" width="80" height="80" as="geometry" />
        </mxCell>
        <mxCell id="FrjHcxir7yiTrVeb2EXu-39" value="LLM" style="rounded=0;whiteSpace=wrap;html=1;" vertex="1" parent="1">
          <mxGeometry x="-470" y="410" width="120" height="60" as="geometry" />
        </mxCell>
        <mxCell id="FrjHcxir7yiTrVeb2EXu-48" value="" style="edgeStyle=orthogonalEdgeStyle;rounded=0;orthogonalLoop=1;jettySize=auto;html=1;" edge="1" parent="1" source="FrjHcxir7yiTrVeb2EXu-45" target="FrjHcxir7yiTrVeb2EXu-47">
          <mxGeometry relative="1" as="geometry" />
        </mxCell>
        <mxCell id="FrjHcxir7yiTrVeb2EXu-45" value="output" style="rhombus;whiteSpace=wrap;html=1;" vertex="1" parent="1">
          <mxGeometry x="-330" y="400" width="80" height="80" as="geometry" />
        </mxCell>
        <mxCell id="FrjHcxir7yiTrVeb2EXu-46" value="" style="endArrow=classic;html=1;rounded=0;exitX=1;exitY=0.5;exitDx=0;exitDy=0;entryX=0;entryY=0.5;entryDx=0;entryDy=0;" edge="1" parent="1" source="FrjHcxir7yiTrVeb2EXu-39" target="FrjHcxir7yiTrVeb2EXu-45">
          <mxGeometry width="50" height="50" relative="1" as="geometry">
            <mxPoint x="-70" y="220" as="sourcePoint" />
            <mxPoint x="-20" y="170" as="targetPoint" />
          </mxGeometry>
        </mxCell>
        <mxCell id="FrjHcxir7yiTrVeb2EXu-70" value="" style="edgeStyle=orthogonalEdgeStyle;rounded=0;orthogonalLoop=1;jettySize=auto;html=1;" edge="1" parent="1" source="FrjHcxir7yiTrVeb2EXu-47" target="FrjHcxir7yiTrVeb2EXu-69">
          <mxGeometry relative="1" as="geometry" />
        </mxCell>
        <mxCell id="FrjHcxir7yiTrVeb2EXu-47" value="使用概率较大的可用模型信息（CAD Bodies, Materials）" style="rounded=1;whiteSpace=wrap;html=1;" vertex="1" parent="1">
          <mxGeometry x="-230" y="410" width="110" height="60" as="geometry" />
        </mxCell>
        <mxCell id="FrjHcxir7yiTrVeb2EXu-50" value="材料属性信息" style="rounded=1;whiteSpace=wrap;html=1;" vertex="1" parent="1">
          <mxGeometry x="-280" y="150" width="100" height="50" as="geometry" />
        </mxCell>
        <mxCell id="FrjHcxir7yiTrVeb2EXu-51" value="材料库" style="rounded=1;whiteSpace=wrap;html=1;" vertex="1" parent="1">
          <mxGeometry x="-400" y="150" width="100" height="50" as="geometry" />
        </mxCell>
        <mxCell id="FrjHcxir7yiTrVeb2EXu-52" value="" style="endArrow=classic;html=1;rounded=0;exitX=1;exitY=0.5;exitDx=0;exitDy=0;entryX=0;entryY=0.5;entryDx=0;entryDy=0;" edge="1" parent="1" source="FrjHcxir7yiTrVeb2EXu-51" target="FrjHcxir7yiTrVeb2EXu-50">
          <mxGeometry width="50" height="50" relative="1" as="geometry">
            <mxPoint x="-690" y="420" as="sourcePoint" />
            <mxPoint x="-640" y="370" as="targetPoint" />
          </mxGeometry>
        </mxCell>
        <mxCell id="FrjHcxir7yiTrVeb2EXu-57" value="" style="edgeStyle=orthogonalEdgeStyle;rounded=0;orthogonalLoop=1;jettySize=auto;html=1;" edge="1" parent="1" source="FrjHcxir7yiTrVeb2EXu-55" target="FrjHcxir7yiTrVeb2EXu-56">
          <mxGeometry relative="1" as="geometry" />
        </mxCell>
        <mxCell id="FrjHcxir7yiTrVeb2EXu-55" value="上下文材料" style="rounded=1;whiteSpace=wrap;html=1;" vertex="1" parent="1">
          <mxGeometry x="-860" y="510" width="100" height="50" as="geometry" />
        </mxCell>
        <mxCell id="FrjHcxir7yiTrVeb2EXu-56" value="上下文材料信息" style="rounded=1;whiteSpace=wrap;html=1;" vertex="1" parent="1">
          <mxGeometry x="-720" y="510" width="100" height="50" as="geometry" />
        </mxCell>
        <mxCell id="FrjHcxir7yiTrVeb2EXu-59" value="" style="endArrow=classic;html=1;rounded=0;exitX=1;exitY=0.5;exitDx=0;exitDy=0;entryX=0;entryY=0.5;entryDx=0;entryDy=0;" edge="1" parent="1" source="FrjHcxir7yiTrVeb2EXu-18" target="FrjHcxir7yiTrVeb2EXu-38">
          <mxGeometry width="50" height="50" relative="1" as="geometry">
            <mxPoint x="-470" y="420" as="sourcePoint" />
            <mxPoint x="-420" y="370" as="targetPoint" />
          </mxGeometry>
        </mxCell>
        <mxCell id="FrjHcxir7yiTrVeb2EXu-60" value="" style="endArrow=classic;html=1;rounded=0;exitX=1;exitY=0.75;exitDx=0;exitDy=0;entryX=0;entryY=0.5;entryDx=0;entryDy=0;" edge="1" parent="1" source="FrjHcxir7yiTrVeb2EXu-26" target="FrjHcxir7yiTrVeb2EXu-38">
          <mxGeometry width="50" height="50" relative="1" as="geometry">
            <mxPoint x="-470" y="420" as="sourcePoint" />
            <mxPoint x="-420" y="370" as="targetPoint" />
          </mxGeometry>
        </mxCell>
        <mxCell id="FrjHcxir7yiTrVeb2EXu-61" value="" style="endArrow=classic;html=1;rounded=0;exitX=1;exitY=0.5;exitDx=0;exitDy=0;entryX=0;entryY=0.5;entryDx=0;entryDy=0;" edge="1" parent="1" source="FrjHcxir7yiTrVeb2EXu-27" target="FrjHcxir7yiTrVeb2EXu-38">
          <mxGeometry width="50" height="50" relative="1" as="geometry">
            <mxPoint x="-470" y="420" as="sourcePoint" />
            <mxPoint x="-420" y="370" as="targetPoint" />
          </mxGeometry>
        </mxCell>
        <mxCell id="FrjHcxir7yiTrVeb2EXu-62" value="" style="endArrow=classic;html=1;rounded=0;exitX=1;exitY=0.5;exitDx=0;exitDy=0;entryX=0;entryY=0.5;entryDx=0;entryDy=0;" edge="1" parent="1" source="FrjHcxir7yiTrVeb2EXu-56" target="FrjHcxir7yiTrVeb2EXu-38">
          <mxGeometry width="50" height="50" relative="1" as="geometry">
            <mxPoint x="-470" y="420" as="sourcePoint" />
            <mxPoint x="-420" y="370" as="targetPoint" />
          </mxGeometry>
        </mxCell>
        <mxCell id="FrjHcxir7yiTrVeb2EXu-67" value="" style="edgeStyle=orthogonalEdgeStyle;rounded=0;orthogonalLoop=1;jettySize=auto;html=1;" edge="1" parent="1" source="FrjHcxir7yiTrVeb2EXu-64" target="FrjHcxir7yiTrVeb2EXu-66">
          <mxGeometry relative="1" as="geometry" />
        </mxCell>
        <mxCell id="FrjHcxir7yiTrVeb2EXu-64" value="PaDGAN" style="rounded=1;whiteSpace=wrap;html=1;" vertex="1" parent="1">
          <mxGeometry x="100" y="410" width="120" height="60" as="geometry" />
        </mxCell>
        <mxCell id="FrjHcxir7yiTrVeb2EXu-77" value="" style="edgeStyle=orthogonalEdgeStyle;rounded=0;orthogonalLoop=1;jettySize=auto;html=1;" edge="1" parent="1" source="FrjHcxir7yiTrVeb2EXu-66" target="FrjHcxir7yiTrVeb2EXu-75">
          <mxGeometry relative="1" as="geometry" />
        </mxCell>
        <mxCell id="FrjHcxir7yiTrVeb2EXu-66" value="多种模型选择方案（每一类多种）" style="rounded=1;whiteSpace=wrap;html=1;" vertex="1" parent="1">
          <mxGeometry x="260" y="410" width="120" height="60" as="geometry" />
        </mxCell>
        <mxCell id="FrjHcxir7yiTrVeb2EXu-71" value="" style="edgeStyle=orthogonalEdgeStyle;rounded=0;orthogonalLoop=1;jettySize=auto;html=1;" edge="1" parent="1" source="FrjHcxir7yiTrVeb2EXu-69" target="FrjHcxir7yiTrVeb2EXu-64">
          <mxGeometry relative="1" as="geometry" />
        </mxCell>
        <mxCell id="FrjHcxir7yiTrVeb2EXu-69" value="分类器" style="rounded=1;whiteSpace=wrap;html=1;" vertex="1" parent="1">
          <mxGeometry x="-90" y="410" width="120" height="60" as="geometry" />
        </mxCell>
        <mxCell id="FrjHcxir7yiTrVeb2EXu-72" value="分别输入" style="text;html=1;strokeColor=none;fillColor=none;align=center;verticalAlign=middle;whiteSpace=wrap;rounded=0;" vertex="1" parent="1">
          <mxGeometry x="40" y="400" width="60" height="30" as="geometry" />
        </mxCell>
        <mxCell id="FrjHcxir7yiTrVeb2EXu-76" value="" style="edgeStyle=orthogonalEdgeStyle;rounded=0;orthogonalLoop=1;jettySize=auto;html=1;" edge="1" parent="1" source="FrjHcxir7yiTrVeb2EXu-74" target="FrjHcxir7yiTrVeb2EXu-75">
          <mxGeometry relative="1" as="geometry" />
        </mxCell>
        <mxCell id="FrjHcxir7yiTrVeb2EXu-74" value="评价指标（重量）" style="rounded=1;whiteSpace=wrap;html=1;" vertex="1" parent="1">
          <mxGeometry x="260" y="330" width="120" height="60" as="geometry" />
        </mxCell>
        <mxCell id="FrjHcxir7yiTrVeb2EXu-80" value="" style="edgeStyle=orthogonalEdgeStyle;rounded=0;orthogonalLoop=1;jettySize=auto;html=1;" edge="1" parent="1" source="FrjHcxir7yiTrVeb2EXu-75" target="FrjHcxir7yiTrVeb2EXu-79">
          <mxGeometry relative="1" as="geometry" />
        </mxCell>
        <mxCell id="FrjHcxir7yiTrVeb2EXu-75" value="遗传算法" style="rounded=1;whiteSpace=wrap;html=1;" vertex="1" parent="1">
          <mxGeometry x="414" y="370" width="96" height="60" as="geometry" />
        </mxCell>
        <mxCell id="FrjHcxir7yiTrVeb2EXu-78" value="可能多种" style="text;html=1;strokeColor=none;fillColor=none;align=center;verticalAlign=middle;whiteSpace=wrap;rounded=0;" vertex="1" parent="1">
          <mxGeometry x="290" y="292" width="60" height="30" as="geometry" />
        </mxCell>
        <mxCell id="FrjHcxir7yiTrVeb2EXu-84" style="edgeStyle=orthogonalEdgeStyle;rounded=0;orthogonalLoop=1;jettySize=auto;html=1;" edge="1" parent="1" source="FrjHcxir7yiTrVeb2EXu-79" target="FrjHcxir7yiTrVeb2EXu-83">
          <mxGeometry relative="1" as="geometry" />
        </mxCell>
        <mxCell id="FrjHcxir7yiTrVeb2EXu-86" value="" style="edgeStyle=orthogonalEdgeStyle;rounded=0;orthogonalLoop=1;jettySize=auto;html=1;" edge="1" parent="1" source="FrjHcxir7yiTrVeb2EXu-79" target="FrjHcxir7yiTrVeb2EXu-83">
          <mxGeometry relative="1" as="geometry" />
        </mxCell>
        <mxCell id="FrjHcxir7yiTrVeb2EXu-79" value="表现最好的几类方案" style="rounded=1;whiteSpace=wrap;html=1;" vertex="1" parent="1">
          <mxGeometry x="530" y="370" width="120" height="60" as="geometry" />
        </mxCell>
        <mxCell id="FrjHcxir7yiTrVeb2EXu-81" value="CAD模型" style="rounded=1;whiteSpace=wrap;html=1;" vertex="1" parent="1">
          <mxGeometry x="700" y="330" width="120" height="60" as="geometry" />
        </mxCell>
        <mxCell id="FrjHcxir7yiTrVeb2EXu-83" value="材料属性" style="rounded=1;whiteSpace=wrap;html=1;" vertex="1" parent="1">
          <mxGeometry x="700" y="410" width="120" height="60" as="geometry" />
        </mxCell>
        <mxCell id="FrjHcxir7yiTrVeb2EXu-87" value="" style="edgeStyle=orthogonalEdgeStyle;rounded=0;orthogonalLoop=1;jettySize=auto;html=1;exitX=1;exitY=0.5;exitDx=0;exitDy=0;exitPerimeter=0;entryX=0;entryY=0.5;entryDx=0;entryDy=0;" edge="1" parent="1" source="FrjHcxir7yiTrVeb2EXu-79" target="FrjHcxir7yiTrVeb2EXu-81">
          <mxGeometry relative="1" as="geometry">
            <mxPoint x="660" y="410" as="sourcePoint" />
            <mxPoint x="710" y="450" as="targetPoint" />
          </mxGeometry>
        </mxCell>
      </root>
    </mxGraphModel>
  </diagram>
</mxfile>
